
#include "pitches.h"

#define BUZZER_PIN 9
#define REST 0
#define MAX_TRACKS 2

int hb_melody[] = {
  NOTE_C4, NOTE_C4, 
  NOTE_D4, NOTE_C4, NOTE_F4,
  NOTE_E4, NOTE_C4, NOTE_C4, 
  NOTE_D4, NOTE_C4, NOTE_G4,
  NOTE_F4, NOTE_C4, NOTE_C4,
  
  NOTE_C5, NOTE_A4, NOTE_F4, 
  NOTE_E4, NOTE_D4, NOTE_AS4, NOTE_AS4,
  NOTE_A4, NOTE_F4, NOTE_G4,
  NOTE_F4,

  NOTE_C4, NOTE_C4, 
  NOTE_D4, NOTE_C4, NOTE_F4,
  NOTE_E4, NOTE_C4, NOTE_C4, 
  NOTE_D4, NOTE_C4, NOTE_G4,
  NOTE_F4, NOTE_C4, NOTE_C4,
  
  NOTE_C5, NOTE_A4, NOTE_F4, 
  NOTE_E4, NOTE_D4, NOTE_AS4, NOTE_AS4,
  NOTE_A4, NOTE_F4, NOTE_G4,
  NOTE_F4,

  NOTE_C4, NOTE_C4, 
  NOTE_D4, NOTE_C4, NOTE_F4,
  NOTE_E4, NOTE_C4, NOTE_C4, 
  NOTE_D4, NOTE_C4, NOTE_G4,
  NOTE_F4, NOTE_C4, NOTE_C4,
  
  NOTE_C5, NOTE_A4, NOTE_F4, 
  NOTE_E4, NOTE_D4, NOTE_AS4, NOTE_AS4,
  NOTE_A4, NOTE_F4, NOTE_G4,
  NOTE_F4,

  NOTE_C4, NOTE_C4, 
  NOTE_D4, NOTE_C4, NOTE_F4,
  NOTE_E4, NOTE_C4, NOTE_C4, 
  NOTE_D4, NOTE_C4, NOTE_G4,
  NOTE_F4, NOTE_C4, NOTE_C4,
  
  NOTE_C5, NOTE_A4, NOTE_F4, 
  NOTE_E4, NOTE_D4, NOTE_AS4, NOTE_AS4,
  NOTE_A4, NOTE_F4, NOTE_G4,
  NOTE_F4
};

int hb_durations[] = {
  4, 8, 
  4, 4, 4,
  2, 4, 8, 
  4, 4, 4,
  2, 4, 8,
  
  4, 4, 4, 
  4, 4, 4, 8,
  4, 4, 4,
  2,

  4, 8, 
  4, 4, 4,
  2, 4, 8, 
  4, 4, 4,
  2, 4, 8,
  
  4, 4, 4, 
  4, 4, 4, 8,
  4, 4, 4,
  2,

  4, 8, 
  4, 4, 4,
  2, 4, 8, 
  4, 4, 4,
  2, 4, 8,
  
  4, 4, 4, 
  4, 4, 4, 8,
  4, 4, 4,
  2,

  4, 8, 
  4, 4, 4,
  2, 4, 8, 
  4, 4, 4,
  2, 4, 8,
  
  4, 4, 4, 
  4, 4, 4, 8,
  4, 4, 4,
  2
};


int pacman_melody[] = {
  NOTE_B4, NOTE_B5, NOTE_FS5, NOTE_DS5,
  NOTE_B5, NOTE_FS5, NOTE_DS5, NOTE_C5,
  NOTE_C6, NOTE_G6, NOTE_E6, NOTE_C6, NOTE_G6, NOTE_E6,
  
  NOTE_B4, NOTE_B5, NOTE_FS5, NOTE_DS5, NOTE_B5,
  NOTE_FS5, NOTE_DS5, NOTE_DS5, NOTE_E5, NOTE_F5,
  NOTE_F5, NOTE_FS5, NOTE_G5, NOTE_G5, NOTE_GS5, NOTE_A5, NOTE_B5,

  NOTE_B4, NOTE_B5, NOTE_FS5, NOTE_DS5,
  NOTE_B5, NOTE_FS5, NOTE_DS5, NOTE_C5,
  NOTE_C6, NOTE_G6, NOTE_E6, NOTE_C6, NOTE_G6, NOTE_E6,
  
  NOTE_B4, NOTE_B5, NOTE_FS5, NOTE_DS5, NOTE_B5,
  NOTE_FS5, NOTE_DS5, NOTE_DS5, NOTE_E5, NOTE_F5,
  NOTE_F5, NOTE_FS5, NOTE_G5, NOTE_G5, NOTE_GS5, NOTE_A5, NOTE_B5,

  NOTE_B4, NOTE_B5, NOTE_FS5, NOTE_DS5,
  NOTE_B5, NOTE_FS5, NOTE_DS5, NOTE_C5,
  NOTE_C6, NOTE_G6, NOTE_E6, NOTE_C6, NOTE_G6, NOTE_E6,
  
  NOTE_B4, NOTE_B5, NOTE_FS5, NOTE_DS5, NOTE_B5,
  NOTE_FS5, NOTE_DS5, NOTE_DS5, NOTE_E5, NOTE_F5,
  NOTE_F5, NOTE_FS5, NOTE_G5, NOTE_G5, NOTE_GS5, NOTE_A5, NOTE_B5
};

int pacman_durations[] = {
  16, 16, 16, 16,
  32, 16, 8, 16,
  16, 16, 16, 32, 16, 8,
  
  16, 16, 16, 16, 32,
  16, 8, 32, 32, 32,
  32, 32, 32, 32, 32, 16, 8,

  16, 16, 16, 16,
  32, 16, 8, 16,
  16, 16, 16, 32, 16, 8,
  
  16, 16, 16, 16, 32,
  16, 8, 32, 32, 32,
  32, 32, 32, 32, 32, 16, 8,

  16, 16, 16, 16,
  32, 16, 8, 16,
  16, 16, 16, 32, 16, 8,
  
  16, 16, 16, 16, 32,
  16, 8, 32, 32, 32,
  32, 32, 32, 32, 32, 16, 8,

  16, 16, 16, 16,
  32, 16, 8, 16,
  16, 16, 16, 32, 16, 8,
  
  16, 16, 16, 16, 32,
  16, 8, 32, 32, 32,
  32, 32, 32, 32, 32, 16, 8
};

int tetris_melody[] = {
  NOTE_E5, NOTE_B4, NOTE_C5, NOTE_D5, NOTE_C5, NOTE_B4,
  NOTE_A4, NOTE_A4, NOTE_C5, NOTE_E5, NOTE_D5, NOTE_C5,
  NOTE_B4, NOTE_C5, NOTE_D5, NOTE_E5,
  NOTE_C5, NOTE_A4, NOTE_A4, NOTE_A4, NOTE_B4, NOTE_C5,
  
  NOTE_D5, NOTE_F5, NOTE_A5, NOTE_G5, NOTE_F5,
  NOTE_E5, NOTE_C5, NOTE_E5, NOTE_D5, NOTE_C5,
  NOTE_B4, NOTE_B4, NOTE_C5, NOTE_D5, NOTE_E5,
  NOTE_C5, NOTE_A4, NOTE_A4, REST, 
  
  NOTE_E5, NOTE_B4, NOTE_C5, NOTE_D5, NOTE_C5, NOTE_B4,
  NOTE_A4, NOTE_A4, NOTE_C5, NOTE_E5, NOTE_D5, NOTE_C5,
  NOTE_B4, NOTE_C5, NOTE_D5, NOTE_E5,
  NOTE_C5, NOTE_A4, NOTE_A4, NOTE_A4, NOTE_B4, NOTE_C5,
  
  NOTE_D5, NOTE_F5, NOTE_A5, NOTE_G5, NOTE_F5,
  NOTE_E5, NOTE_C5, NOTE_E5, NOTE_D5, NOTE_C5,
  NOTE_B4, NOTE_B4, NOTE_C5, NOTE_D5, NOTE_E5,
  NOTE_C5, NOTE_A4, NOTE_A4, REST, 
  
  NOTE_E5, NOTE_C5,
  NOTE_D5, NOTE_B4,
  NOTE_C5, NOTE_A4,
  NOTE_GS4, NOTE_B4, REST, 
  NOTE_E5, NOTE_C5,
  NOTE_D5, NOTE_B4,
  NOTE_C5, NOTE_E5, NOTE_A5,
  NOTE_GS5
};

int tetris_durations[] = {
  4, 8, 8, 4, 8, 8,
  4, 8, 8, 4, 8, 8,
  4, 8, 4, 4,
  4, 4, 8, 4, 8, 8,
  
  4, 8, 4, 8, 8,
  4, 8, 4, 8, 8,
  4, 8, 8, 4, 4,
  4, 4, 4, 4,
  
  4, 8, 8, 4, 8, 8,
  4, 8, 8, 4, 8, 8,
  4, 8, 4, 4,
  4, 4, 8, 4, 8, 8,
  
  4, 8, 4, 8, 8,
  4, 8, 4, 8, 8,
  4, 8, 8, 4, 4,
  4, 4, 4, 4,
  
  2, 2,
  2, 2,
  2, 2,
  2, 4, 8, 
  2, 2,
  2, 2,
  4, 4, 2,
  2
};


//0 - Happy Birthday, 1 - Pacman, 2 - Tetris
int currentTrack = 1;

//Left button controls mic
int micState = 1;

//Right button controls buzzer
int buzzState = 0;

#define BUTTON1_PIN 6
#define BUTTON2_PIN 5
#define BUTTON_COOLDOWN 100

int curButtonState, curButton2State;
int lastButtonState, lastButton2State = LOW;
unsigned long lastDebounceTime, lastDebounceTime2 = 0;  // the last time the output pin was toggled

void incrementTrack() {
  currentTrack++;
  if (currentTrack)
  currentTrack = (currentTrack > MAX_TRACKS) ? 0 : currentTrack;
}

void decrementTrack() {
  currentTrack--;
  currentTrack = (currentTrack < 0) ? MAX_TRACKS : currentTrack;
}

//Returns 0 if message is meant for another arduino
//Returns 1 if message is for this arduino
int analyzeMessage(String message) {
  if (message.equals("UP")) {
    incrementTrack();
    return 1;
  } else if (message.equals("DOWN")) {
    decrementTrack();
    return 1;
  }
  return 0;
}

void setup() {
  // put your setup code here, to run once:
  Serial.begin(9600);
  pinMode(BUZZER_PIN, OUTPUT);
}

void playingNotes(int durations[], int melody[], int size) {
  for (int note = 0; note < size; note++) {
    //to calculate the note duration, take one second divided by the note type.
    //e.g. quarter note = 1000 / 4, eighth note = 1000/8, etc.
    int duration = 1000 / durations[note];
    tone(BUZZER_PIN, melody[note], duration);

    //to distinguish the notes, set a minimum time between them.
    //the note's duration + 30% seems to work well:
    int pauseBetweenNotes = duration * 1.30;

    long prevTime = millis();
    while (millis() - prevTime < pauseBetweenNotes) {
      checkButtonInput();
      if (buzzState == 0) {
        return;
      }
      
      //Check for any extra messages

      //Gets input from other Arduino(s)
      // if (Serial.available() > 0) {
      //   while (Serial.available() > 0) {
      //     String message = Serial.readString();
      //     // String message2 = String("Message: " + message);
      //     // Serial.println(message2);

      //     //If user changed song, then get out of function, and replay new song
      //     if (analyzeMessage(message) == 1) {
      //       return;
      //     }
      //   }
      // }
    }
    
    //stop the tone playing:
    noTone(BUZZER_PIN);
  }
}

void checkButtonInput() {
  int buttonState = digitalRead(BUTTON1_PIN);
  int button2State = digitalRead(BUTTON2_PIN);
  long currentTime = millis();

  if (currentTime - lastDebounceTime > BUTTON_COOLDOWN) {
    if (buttonState != curButtonState) {
      curButtonState = buttonState;
      if (curButtonState == HIGH) {
        lastDebounceTime = millis();
        Serial.println("Button 1 pressed!");
        micState = !micState;
      }
    }
  }

  if (currentTime - lastDebounceTime2 > BUTTON_COOLDOWN) {
    if (button2State != curButton2State) {
      curButton2State = button2State;
      if (curButton2State == HIGH) {
        lastDebounceTime2 = millis();
        Serial.println("Button 2 pressed!");
        buzzState = !buzzState;
      }
    }
  }
}

void loop() {
  // put your main code here, to run repeatedly:

  //Starts song based on value of currentTrack
  if (buzzState == 1) {
    Serial.println(currentTrack);

    switch (currentTrack) {
      case 0: 
        playingNotes(hb_durations, hb_melody, 100);
        break;
      case 1:
        playingNotes(pacman_durations, pacman_melody, 124);
        break;
      case 2:
        playingNotes(tetris_durations, tetris_melody, 99);
        break;
    } 

    incrementTrack();
  } else {
    checkButtonInput();
  }
}
